<svg width="71" height="55" viewBox="0 0 71 55" fill="none" xmlns="http://www.w3.org/2000/svg">
<g id="Frame" clipPath="url(#clip0_162_1271)">
<path id="Vector" d="M62.883 50.1C63.871 50.1 64.406 50.834 64.406 51.742V53.465H63.744V51.849C63.744 51.255 63.451 50.734 62.836 50.734C62.242 50.734 61.942 51.234 61.942 51.836V53.465H61.281V51.835C61.281 51.235 60.981 50.734 60.372 50.734C59.758 50.734 59.484 51.254 59.484 51.849V53.465H58.824V51.749C58.824 50.834 59.344 50.099 60.326 50.099C60.98 50.099 61.454 50.433 61.621 50.941C61.801 50.433 62.262 50.1 62.883 50.1ZM56.498 52.904C57.105 52.904 57.439 52.376 57.439 51.769V50.193H58.1V51.849C58.1 52.797 57.526 53.545 56.498 53.545C55.483 53.545 54.908 52.79 54.908 51.842V50.193H55.569V51.776C55.569 52.376 55.897 52.904 56.498 52.904ZM53.044 53.538C52.436 53.538 51.969 53.298 51.714 52.811L52.222 52.531C52.389 52.857 52.656 52.978 53.017 52.978C53.391 52.978 53.678 52.824 53.678 52.537C53.678 51.849 51.802 52.37 51.802 51.121C51.802 50.547 52.309 50.126 53.024 50.126C53.631 50.126 54.045 50.406 54.252 50.787L53.745 51.075C53.605 50.787 53.338 50.687 53.037 50.687C52.73 50.687 52.463 50.847 52.463 51.107C52.463 51.776 54.339 51.288 54.339 52.523C54.339 53.144 53.739 53.538 53.044 53.538ZM48.505 54.967H47.843V51.822C47.843 50.847 48.598 50.112 49.586 50.112C49.8127 50.1085 50.0379 50.1502 50.2484 50.2346C50.4589 50.319 50.6504 50.4444 50.812 50.6035C50.9735 50.7627 51.1018 50.9523 51.1894 51.1615C51.2769 51.3707 51.322 51.5952 51.322 51.822C51.322 52.811 50.608 53.545 49.612 53.545C49.172 53.545 48.772 53.351 48.504 53.058V54.968L48.505 54.967ZM49.586 52.924C50.194 52.924 50.661 52.424 50.661 51.829C50.661 51.228 50.194 50.741 49.586 50.741C48.972 50.741 48.505 51.228 48.505 51.829C48.505 52.423 48.972 52.924 49.586 52.924ZM46.306 50.193H46.966V53.465H46.306V50.193ZM55.223 47.207C50.172 47.207 46.319 43.322 46.319 38.594C46.319 33.9 50.172 30.014 55.223 30.014C60.273 30.014 64.127 33.9 64.127 38.594C64.127 43.322 60.274 47.207 55.223 47.207ZM55.223 41.735C57.068 41.735 58.299 40.31 58.299 38.627C58.299 36.911 57.069 35.486 55.223 35.486C53.377 35.486 52.147 36.911 52.147 38.626C52.147 40.31 53.377 41.735 55.223 41.735ZM35.314 54.654C31.299 54.654 28.384 52.874 26.895 49.7L31.72 47.11C32.238 48.21 33.21 49.344 35.217 49.344C37.321 49.344 38.714 48.016 38.876 45.685C38.098 46.365 36.868 46.883 35.023 46.883C30.522 46.883 26.895 43.419 26.895 38.562C26.895 33.867 30.749 30.047 35.8 30.047C40.98 30.047 44.704 33.641 44.704 38.594V45.005C44.704 50.833 40.656 54.654 35.314 54.654ZM35.702 41.411C37.451 41.411 38.778 40.213 38.778 38.432C38.778 36.684 37.451 35.518 35.702 35.518C33.986 35.518 32.627 36.684 32.627 38.432C32.627 40.213 33.987 41.411 35.702 41.411ZM17.009 47.207C11.958 47.207 8.105 43.322 8.105 38.594C8.105 33.9 11.958 30.014 17.009 30.014C22.059 30.014 25.913 33.9 25.913 38.594C25.913 43.322 22.06 47.207 17.009 47.207ZM17.009 41.735C18.854 41.735 20.085 40.31 20.085 38.627C20.085 36.911 18.855 35.486 17.009 35.486C15.163 35.486 13.933 36.911 13.933 38.626C13.933 40.31 15.163 41.735 17.009 41.735ZM0 23.085H5.828V46.721H0V23.085ZM70.734 32C70.734 32.5304 70.5233 33.0391 70.1482 33.4142C69.7731 33.7892 69.2644 34 68.734 34C68.2036 34 67.6949 33.7892 67.3198 33.4142C66.9447 33.0391 66.734 32.5304 66.734 32C66.734 31.4695 66.9447 30.9608 67.3198 30.5857C67.6949 30.2107 68.2036 30 68.734 30C69.2644 30 69.7731 30.2107 70.1482 30.5857C70.5233 30.9608 70.734 31.4695 70.734 32Z" fill="#113441"/>
<path id="Vector_2" fill-rule="evenodd" clip-rule="evenodd" d="M54.7899 9.66457C60.5363 15.4108 63.9603 23.0753 64.4059 31.1896C62.7081 29.2025 60.4017 27.8316 57.8449 27.2896C56.6798 21.9049 53.8953 17.0055 49.8652 13.249C45.8351 9.4926 40.7523 7.05892 35.2991 6.27468C29.8458 5.49045 24.2832 6.39318 19.3579 8.86171C14.4326 11.3302 10.3803 15.2464 7.74494 20.0846H1.08594C3.19939 15.1144 6.50043 10.7389 10.6993 7.34208C14.8983 3.94526 19.8667 1.63093 25.1687 0.602207C30.4707 -0.426519 35.9442 -0.138203 41.1087 1.44185C46.2733 3.02191 50.9711 5.84541 54.7899 9.66457Z" fill="#FFD43E"/>
<path id="Vector_3" fill-rule="evenodd" clip-rule="evenodd" d="M50.5471 13.9083C54.2145 17.5755 56.7482 22.2213 57.8451 27.2903C57.0031 27.1103 56.1251 27.0143 55.2231 27.0143C54.0031 27.0143 52.8291 27.1883 51.7261 27.5133C50.4963 22.9644 47.7723 18.9614 43.9921 16.148C40.212 13.3347 35.5954 11.8745 30.885 12.0024C26.1745 12.1303 21.644 13.8388 18.0221 16.8531C14.4001 19.8674 11.8973 24.0124 10.9161 28.6213C10.1662 29.0528 9.46598 29.5656 8.82814 30.1503V20.0853H7.74414C9.75222 16.3985 12.5923 13.2308 16.0389 10.8338C19.4855 8.43677 23.4435 6.87647 27.5986 6.27684C31.7537 5.6772 35.9914 6.05476 39.9751 7.37951C43.9588 8.70426 47.5786 10.9397 50.5471 13.9083Z" fill="#EE8E1D"/>
<path id="Vector_4" d="M46.3059 30.8884C45.8461 27.6531 44.3423 24.6565 42.0233 22.3542C39.7043 20.0519 36.697 18.5699 33.4585 18.1334C30.22 17.697 26.9275 18.3301 24.0818 19.9363C21.2361 21.5426 18.9927 24.0343 17.6929 27.0324C21.2529 27.2244 24.3629 28.9054 26.4009 31.4434C28.5729 28.7534 31.9639 27.0474 35.7999 27.0474C39.9099 27.0474 43.4419 28.8494 45.5669 31.7854C45.7979 31.4744 46.0449 31.1754 46.3059 30.8884Z" fill="#971C1C"/>
<path id="Vector_5" fill-rule="evenodd" clip-rule="evenodd" d="M51.725 27.5134C49.6436 28.1213 47.7689 29.2887 46.305 30.8884C45.8449 27.6535 44.341 24.6573 42.0221 22.3554C39.7032 20.0534 36.6961 18.5716 33.4579 18.1352C30.2197 17.6988 26.9276 18.3317 24.082 19.9376C21.2365 21.5436 18.9931 24.0347 17.693 27.0324C17.4652 27.0203 17.2371 27.0143 17.009 27.0144C14.772 27.0144 12.692 27.6004 10.916 28.6214C11.898 24.0132 14.4011 19.8691 18.023 16.8554C21.6449 13.8418 26.175 12.1337 30.8849 12.0058C35.5949 11.8779 40.211 13.3377 43.9911 16.1504C47.7711 18.9631 50.4954 22.9653 51.726 27.5134H51.725Z" fill="#D62727"/>
</g>
<defs>
<clipPath id="clip0_162_1271">
<rect width="71" height="55" fill="white"/>
</clipPath>
</defs>
</svg>
