<svg width="105" height="40" viewBox="0 0 105 40" fill="none" xmlns="http://www.w3.org/2000/svg">
<g id="logo-77" clipPath="url(#clip0_162_1332)">
<path id="Vector" d="M48.1357 35.238H50.8701V24.9237H48.1357V35.238ZM48.1357 23.3152H50.8701V20.8623H48.1357V23.3152Z" fill="black"/>
<path id="Vector_2" d="M52.6318 38.6162H55.3662V34.0723H55.4065C55.9895 34.9569 56.9345 35.54 58.3821 35.54C61.0361 35.54 62.8456 33.4289 62.8456 30.0913C62.8456 26.8743 61.0964 24.6426 58.362 24.6426C56.9546 24.6426 55.9895 25.3061 55.326 26.2108H55.2657V24.9241H52.6318V38.6162ZM57.7991 33.268C56.1705 33.268 55.3059 32.0416 55.3059 30.1717C55.3059 28.322 55.9895 26.8542 57.6985 26.8542C59.3874 26.8542 60.071 28.2214 60.071 30.1717C60.071 32.122 59.1864 33.268 57.7991 33.268Z" fill="black"/>
<path id="Vector_3" d="M68.3011 35.54C70.8746 35.54 72.6439 34.2934 72.6439 32.2225C72.6439 29.8098 70.7339 29.3273 69.0048 28.9654C67.537 28.6638 66.1698 28.5833 66.1698 27.6987C66.1698 26.9548 66.8735 26.5526 67.9392 26.5526C69.1053 26.5526 69.809 26.9548 69.9296 28.0606H72.4027C72.2016 25.9897 70.6937 24.6426 67.9794 24.6426C65.627 24.6426 63.7772 25.7082 63.7772 27.9399C63.7772 30.1918 65.5868 30.6945 67.4365 31.0564C68.8439 31.3378 70.1508 31.4384 70.1508 32.4236C70.1508 33.1474 69.4672 33.6098 68.2608 33.6098C67.0344 33.6098 66.1899 33.0871 66.009 31.9008H63.4756C63.6365 34.0924 65.3053 35.54 68.3011 35.54Z" fill="black"/>
<path id="Vector_4" d="M83.0255 35.2381V24.9238H80.2911V30.8751C80.2911 32.2423 79.507 33.2074 78.2202 33.2074C77.0541 33.2074 76.5112 32.5439 76.5112 31.3375V24.9238H73.7969V31.8C73.7969 34.0518 75.0837 35.5196 77.3758 35.5196C78.8234 35.5196 79.6276 34.9767 80.3314 34.0317H80.3917V35.2381H83.0255Z" fill="black"/>
<path id="Vector_5" d="M84.7939 35.2384H87.5284V29.2468C87.5284 27.8796 88.2723 26.995 89.3781 26.995C90.3834 26.995 90.9665 27.5981 90.9665 28.7643V35.2384H93.7009V29.2468C93.7009 27.8796 94.4046 26.995 95.5506 26.995C96.5559 26.995 97.139 27.5981 97.139 28.7643V35.2384H99.8734V28.3019C99.8734 26.05 98.6469 24.6426 96.4755 24.6426C95.1686 24.6426 94.0829 25.3262 93.3792 26.4521H93.339C92.8363 25.3664 91.7908 24.6426 90.4839 24.6426C89.0564 24.6426 88.0511 25.3664 87.4881 26.3114H87.4278V24.9241H84.7939V35.2384Z" fill="black"/>
<path id="Vector_6" d="M48.1758 17.572H50.9102V3.19629H48.1758V17.572Z" fill="black"/>
<path id="Vector_7" d="M57.5964 17.874C60.7933 17.874 62.9848 15.5015 62.9848 12.4253C62.9848 9.34905 60.7933 6.97656 57.5964 6.97656C54.3996 6.97656 52.208 9.34905 52.208 12.4253C52.208 15.5015 54.3996 17.874 57.5964 17.874ZM57.5964 15.783C55.9075 15.783 54.9827 14.4359 54.9827 12.4253C54.9827 10.4147 55.9075 9.04747 57.5964 9.04747C59.2652 9.04747 60.2102 10.4147 60.2102 12.4253C60.2102 14.4359 59.2652 15.783 57.5964 15.783Z" fill="black"/>
<path id="Vector_8" d="M68.7995 21.091C70.3276 21.091 71.6546 20.7291 72.5191 19.9248C73.2831 19.2211 73.7456 18.2359 73.7456 16.7883V7.25804H71.1117V8.34376H71.0715C70.4482 7.4792 69.5032 6.97656 68.2164 6.97656C65.6027 6.97656 63.7529 8.94694 63.7529 12.0232C63.7529 15.1396 66.0048 16.9491 68.2969 16.9491C69.6038 16.9491 70.3879 16.4264 70.9911 15.7428H71.0514V16.8687C71.0514 18.2761 70.3075 19.02 68.7593 19.02C67.4926 19.02 66.9096 18.5174 66.6884 17.874H63.9741C64.2556 19.8846 65.9847 21.091 68.7995 21.091ZM68.7593 14.7576C67.3519 14.7576 66.427 13.7322 66.427 11.983C66.427 10.2539 67.3519 9.1681 68.7392 9.1681C70.3879 9.1681 71.1921 10.4549 71.1921 11.9629C71.1921 13.4909 70.4884 14.7576 68.7593 14.7576Z" fill="black"/>
<path id="Vector_9" d="M80.3923 17.874C83.5891 17.874 85.7807 15.5015 85.7807 12.4253C85.7807 9.34905 83.5891 6.97656 80.3923 6.97656C77.1955 6.97656 75.0039 9.34905 75.0039 12.4253C75.0039 15.5015 77.1955 17.874 80.3923 17.874ZM80.3923 15.783C78.7034 15.783 77.7785 14.4359 77.7785 12.4253C77.7785 10.4147 78.7034 9.04747 80.3923 9.04747C82.0611 9.04747 83.0061 10.4147 83.0061 12.4253C83.0061 14.4359 82.0611 15.783 80.3923 15.783Z" fill="black"/>
<path id="Vector_10" d="M88.1777 13.6317H99.9998V11.2793H88.1777V13.6317Z" fill="black"/>
<path id="Vector_11" d="M100.867 23.1718C100.867 22.7091 101.242 22.334 101.705 22.334H103.38C103.843 22.334 104.218 22.7091 104.218 23.1718C104.218 23.6344 103.843 24.0095 103.38 24.0095H101.705C101.242 24.0095 100.867 23.6344 100.867 23.1718Z" fill="black"/>
<path id="Vector_12" fill-rule="evenodd" clip-rule="evenodd" d="M20.5215 0C31.5672 0 40.5215 8.9543 40.5215 20C40.5215 31.0457 31.5672 40 20.5215 40C9.47579 40 0.521484 31.0457 0.521484 20C0.521484 8.9543 9.47579 0 20.5215 0ZM19.7986 1.49659C17.517 1.81769 15.3444 3.65108 13.6579 6.7174C13.1687 7.60683 12.7273 8.58946 12.3426 9.65044C14.6358 9.07417 17.1549 8.73442 19.7986 8.68187V1.49659ZM10.6523 10.1308C11.1306 8.62958 11.7158 7.2484 12.3911 6.02065C13.2271 4.50059 14.2193 3.18795 15.3372 2.17977C9.25828 3.94523 4.46671 8.73679 2.70126 14.8157C3.70943 13.6978 5.02208 12.7056 6.54214 11.8696C7.76989 11.1943 9.15106 10.6091 10.6523 10.1308ZM10.1719 11.8211C9.59565 14.1143 9.25591 16.6334 9.20336 19.2771H2.01807C2.33918 16.9954 4.17257 14.8228 7.23889 13.1364C8.12832 12.6472 9.11095 12.2058 10.1719 11.8211ZM10.6495 19.2771C10.7092 16.392 11.1245 13.6834 11.8117 11.2902C14.2049 10.603 16.9136 10.1876 19.7986 10.1279V13.2508C18.7223 16.0062 16.5271 18.2012 13.7716 19.2771H10.6495ZM9.20336 20.7229H2.01807C2.33918 23.0046 4.17257 25.1771 7.23889 26.8636C8.12832 27.3528 9.11095 27.7942 10.1719 28.1789C9.59565 25.8857 9.25591 23.3666 9.20336 20.7229ZM11.8117 28.7098C11.1245 26.3166 10.7092 23.608 10.6495 20.7229H13.7716C16.5271 21.7988 18.7224 23.9938 19.7986 26.7492V29.8721C16.9136 29.8124 14.2049 29.397 11.8117 28.7098ZM10.6523 29.8692C9.15106 29.3909 7.76989 28.8057 6.54214 28.1304C5.02208 27.2944 3.70943 26.3022 2.70126 25.1843C4.46671 31.2632 9.25828 36.0548 15.3372 37.8202C14.2193 36.812 13.2271 35.4994 12.3911 33.9793C11.7158 32.7516 11.1306 31.3704 10.6523 29.8692ZM19.7986 38.5034C17.517 38.1823 15.3444 36.3489 13.6579 33.2826C13.1687 32.3932 12.7273 31.4105 12.3426 30.3496C14.6358 30.9258 17.1549 31.2656 19.7986 31.3181V38.5034ZM25.7058 37.8202C26.8237 36.812 27.8159 35.4994 28.652 33.9793C29.3272 32.7516 29.9124 31.3704 30.3907 29.8692C31.8919 29.3909 33.2731 28.8057 34.5009 28.1304C36.0209 27.2944 37.3336 26.3022 38.3417 25.1843C36.5763 31.2632 31.7847 36.0548 25.7058 37.8202ZM28.7004 30.3496C28.3157 31.4105 27.8743 32.3932 27.3851 33.2826C25.6987 36.3489 23.5261 38.1823 21.2444 38.5034V31.3181C23.8881 31.2656 26.4072 30.9258 28.7004 30.3496ZM30.8711 28.1789C31.932 27.7942 32.9147 27.3528 33.8041 26.8636C36.8704 25.1771 38.7038 23.0046 39.0249 20.7229H31.8396C31.7871 23.3666 31.4473 25.8857 30.8711 28.1789ZM30.3936 20.7229C30.3339 23.608 29.9185 26.3166 29.2313 28.7098C26.8381 29.397 24.1295 29.8124 21.2444 29.8721V26.7515C22.3203 23.9951 24.516 21.7991 27.2723 20.7229H30.3936ZM31.8396 19.2771H39.0249C38.7038 16.9954 36.8704 14.8228 33.8041 13.1364C32.9147 12.6472 31.932 12.2058 30.8711 11.8211C31.4473 14.1143 31.7871 16.6334 31.8396 19.2771ZM29.2313 11.2902C29.9185 13.6834 30.3339 16.392 30.3936 19.2771H27.2723C24.516 18.2009 22.3203 16.0049 21.2444 13.2485V10.1279C24.1295 10.1876 26.8381 10.603 29.2313 11.2902ZM30.3907 10.1308C31.8919 10.6091 33.2731 11.1943 34.5009 11.8696C36.0209 12.7056 37.3336 13.6978 38.3417 14.8157C36.5763 8.73679 31.7847 3.94523 25.7058 2.17977C26.8237 3.18795 27.8159 4.50059 28.652 6.02065C29.3272 7.2484 29.9124 8.62958 30.3907 10.1308ZM21.2444 1.49659C23.5261 1.81769 25.6987 3.65108 27.3851 6.7174C27.8743 7.60684 28.3157 8.58946 28.7004 9.65044C26.4072 9.07417 23.8881 8.73442 21.2444 8.68187V1.49659Z" fill="black"/>
</g>
<defs>
<clipPath id="clip0_162_1332">
<rect width="105" height="40" fill="white"/>
</clipPath>
</defs>
</svg>
