<svg width="125" height="40" viewBox="0 0 125 40" fill="none" xmlns="http://www.w3.org/2000/svg">
<g id="logo-79" clipPath="url(#clip0_162_1310)">
<path id="Vector" d="M88.8613 37.2245C89.6203 37.2245 90.0693 36.6495 90.0693 35.7505C90.0693 34.8185 89.5873 34.2765 88.8773 34.2765C88.4713 34.2765 88.1893 34.4565 87.9783 34.7425H87.9683V33.2695H87.5283V37.1425H87.9683V36.7745H87.9783C88.2063 37.0885 88.4823 37.2245 88.8613 37.2245ZM88.8293 36.8555C88.2333 36.8555 87.9403 36.3845 87.9403 35.7555C87.9403 35.1495 88.2223 34.6505 88.8343 34.6505C89.3653 34.6505 89.6203 35.1275 89.6203 35.7555C89.6203 36.3895 89.3653 36.8555 88.8293 36.8555ZM90.8123 38.0695C91.1533 38.0695 91.3703 37.9495 91.5973 37.3695L92.7953 34.3415H92.3293L91.6893 36.0865C91.6033 36.3195 91.5053 36.6335 91.5053 36.6335H91.4953C91.4953 36.6335 91.3913 36.3195 91.3053 36.0865L90.6443 34.3415H90.1673L91.2613 37.0615L91.1533 37.3375C91.0453 37.6085 90.9203 37.6795 90.7363 37.6795C90.6335 37.6847 90.5311 37.6641 90.4383 37.6195H90.4163V38.0095C90.5363 38.0585 90.6443 38.0695 90.8123 38.0695ZM93.9183 37.1425H94.6553V33.2695H93.9183V37.1425ZM96.4573 37.2245C97.3183 37.2245 97.9093 36.5845 97.9093 35.7555C97.9093 34.9265 97.3193 34.2875 96.4573 34.2875C95.5963 34.2875 95.0053 34.9275 95.0053 35.7555C95.0053 36.5855 95.5953 37.2245 96.4573 37.2245ZM96.4573 36.6605C96.0023 36.6605 95.7533 36.2975 95.7533 35.7555C95.7533 35.2145 96.0023 34.8455 96.4573 34.8455C96.9073 34.8455 97.1613 35.2145 97.1613 35.7555C97.1613 36.2975 96.9073 36.6605 96.4573 36.6605ZM99.4763 38.0905C99.8883 38.0905 100.245 37.9935 100.478 37.7765C100.684 37.5865 100.809 37.3215 100.809 36.9315V34.3635H100.099V34.6565H100.088C99.9203 34.4235 99.6663 34.2875 99.3183 34.2875C98.6153 34.2875 98.1163 34.8185 98.1163 35.6475C98.1163 36.4875 98.7233 36.9745 99.3413 36.9745C99.6933 36.9745 99.9043 36.8345 100.066 36.6495H100.083V36.9535C100.083 37.3325 99.8833 37.5335 99.4653 37.5335C99.1243 37.5335 98.9673 37.3975 98.9073 37.2235H98.1763C98.2513 37.7655 98.7173 38.0905 99.4763 38.0905ZM99.4663 36.3845C99.0863 36.3845 98.8363 36.1085 98.8363 35.6365C98.8363 35.1705 99.0863 34.8785 99.4603 34.8785C99.9043 34.8785 100.121 35.2245 100.121 35.6315C100.121 36.0435 99.9313 36.3845 99.4653 36.3845H99.4663ZM102.6 37.2245C103.461 37.2245 104.052 36.5845 104.052 35.7555C104.052 34.9265 103.461 34.2875 102.6 34.2875C101.738 34.2875 101.148 34.9275 101.148 35.7555C101.148 36.5855 101.738 37.2245 102.6 37.2245ZM102.6 36.6605C102.145 36.6605 101.895 36.2975 101.895 35.7555C101.895 35.2145 102.145 34.8455 102.6 34.8455C103.049 34.8455 103.304 35.2145 103.304 35.7555C103.304 36.2975 103.049 36.6605 102.6 36.6605ZM104.394 37.1425H105.131V34.3635H104.394V37.1425ZM104.394 33.9305H105.131V33.2695H104.394V33.9305ZM105.606 38.0525H106.343V36.8295H106.353C106.511 37.0685 106.765 37.2255 107.155 37.2255C107.87 37.2255 108.358 36.6555 108.358 35.7565C108.358 34.8895 107.887 34.2885 107.15 34.2885C106.99 34.2859 106.831 34.3232 106.688 34.397C106.545 34.4708 106.423 34.5789 106.332 34.7115H106.316V34.3645H105.606V38.0545V38.0525ZM106.998 36.6125C106.559 36.6125 106.326 36.2815 106.326 35.7775C106.326 35.2795 106.511 34.8835 106.971 34.8835C107.426 34.8835 107.61 35.2515 107.61 35.7775C107.61 36.3035 107.372 36.6125 106.998 36.6125ZM109.828 37.2245C110.521 37.2245 110.998 36.8885 110.998 36.3305C110.998 35.6805 110.483 35.5505 110.017 35.4525C109.622 35.3715 109.254 35.3495 109.254 35.1115C109.254 34.9115 109.443 34.8015 109.73 34.8015C110.045 34.8015 110.234 34.9115 110.267 35.2085H110.933C110.879 34.6505 110.473 34.2885 109.741 34.2885C109.107 34.2885 108.609 34.5745 108.609 35.1765C108.609 35.7825 109.096 35.9185 109.595 36.0165C109.974 36.0915 110.326 36.1185 110.326 36.3845C110.326 36.5795 110.142 36.7045 109.817 36.7045C109.487 36.7045 109.259 36.5635 109.21 36.2435H108.528C108.571 36.8335 109.021 37.2245 109.828 37.2245ZM113.796 37.1425V34.3635H113.059V35.9675C113.059 36.3355 112.847 36.5955 112.501 36.5955C112.187 36.5955 112.04 36.4165 112.04 36.0915V34.3635H111.309V36.2165C111.309 36.8235 111.656 37.2185 112.273 37.2185C112.663 37.2185 112.88 37.0725 113.07 36.8185H113.086V37.1425H113.796ZM114.272 37.1425H115.009V35.5295C115.009 35.1605 115.209 34.9225 115.507 34.9225C115.778 34.9225 115.935 35.0855 115.935 35.3995V37.1435H116.672V35.5295C116.672 35.1605 116.862 34.9225 117.171 34.9225C117.442 34.9225 117.599 35.0855 117.599 35.3995V37.1435H118.336V35.2745C118.336 34.6675 118.005 34.2885 117.42 34.2885C117.068 34.2885 116.775 34.4725 116.586 34.7765H116.575C116.509 34.6289 116.4 34.5041 116.263 34.4174C116.126 34.3306 115.967 34.2859 115.805 34.2885C115.643 34.2845 115.482 34.3241 115.34 34.4032C115.198 34.4824 115.08 34.5982 114.998 34.7385H114.982V34.3645H114.272V37.1445V37.1425Z" fill="#E5708C"/>
<path id="Vector_2" d="M118.481 2.14869C118.481 0.965694 119.44 0.00569434 120.623 0.00569434H122.052C122.62 0.00569434 123.165 0.231474 123.567 0.633364C123.969 1.03525 124.195 1.58034 124.195 2.14869C124.195 2.71705 123.969 3.26213 123.567 3.66402C123.165 4.06591 122.62 4.29169 122.052 4.29169H120.623C120.341 4.29169 120.063 4.23626 119.803 4.12855C119.543 4.02084 119.307 3.86297 119.108 3.66396C118.909 3.46495 118.751 3.2287 118.643 2.96871C118.536 2.70871 118.48 2.43007 118.481 2.14869ZM58.4896 14.2897C58.4896 22.1777 52.0956 28.5727 44.2066 28.5727C36.3186 28.5727 29.9236 22.1777 29.9236 14.2897C29.9236 6.39969 36.3186 0.00669434 44.2066 0.00669434C52.0956 0.00669434 58.4896 6.39969 58.4896 14.2897ZM27.1376 14.2187C27.9276 14.2187 28.5736 14.8587 28.4946 15.6447C28.2246 18.3345 27.1968 20.8925 25.5307 23.0213C23.8645 25.1502 21.6285 26.7625 19.0823 27.6708C16.5361 28.5792 13.7845 28.7463 11.1471 28.1528C8.50973 27.5593 6.09494 26.2294 4.1834 24.3179C2.27185 22.4064 0.942035 19.9916 0.348505 17.3542C-0.245025 14.7168 -0.0778988 11.9652 0.830461 9.419C1.73882 6.87284 3.35111 4.63675 5.47996 2.9706C7.6088 1.30445 10.1668 0.276669 12.8566 0.00669434C13.6416 -0.0733057 14.2826 0.574694 14.2826 1.36269V12.7897C14.2826 13.5797 14.9226 14.2187 15.7116 14.2187H27.1376ZM78.4866 31.4297C79.623 31.4297 80.713 31.8811 81.5165 32.6847C82.3201 33.4883 82.7716 34.5782 82.7716 35.7147C82.7716 36.8511 82.3201 37.9411 81.5165 38.7446C80.713 39.5482 79.623 39.9997 78.4866 39.9997H71.3456C70.2091 39.9997 69.1192 39.5482 68.3156 38.7446C67.512 37.9411 67.0606 36.8511 67.0606 35.7147C67.0606 34.5782 67.512 33.4883 68.3156 32.6847C69.1192 31.8811 70.2091 31.4297 71.3456 31.4297H78.4866ZM74.2016 28.5727C82.0906 28.5727 88.4856 22.1777 88.4856 14.2897C88.489 11.8666 87.8732 9.48291 86.6966 7.36469L89.0566 5.00469C89.3284 4.73273 89.544 4.40988 89.6911 4.05459C89.8382 3.69929 89.9138 3.31851 89.9137 2.93399C89.9136 2.54946 89.8378 2.16872 89.6906 1.81349C89.5433 1.45827 89.3276 1.13553 89.0556 0.863694C88.7836 0.591858 88.4608 0.376252 88.1055 0.229185C87.7502 0.0821186 87.3694 0.00647223 86.9849 0.0065651C86.6004 0.00665796 86.2196 0.0824882 85.8644 0.229726C85.5092 0.376964 85.1864 0.592727 84.9146 0.864694L82.8546 2.92469C80.3694 1.0266 77.3278 0.000662512 74.2006 0.00569434C66.3136 0.00669434 59.9196 6.39969 59.9196 14.2897C59.9196 22.1777 66.3136 28.5727 74.2016 28.5727ZM118.481 14.2897C118.481 22.1777 112.086 28.5727 104.197 28.5727C96.3086 28.5727 89.9136 22.1777 89.9136 14.2897C89.9136 6.39969 96.3086 0.00669434 104.197 0.00669434C112.086 0.00669434 118.481 6.40069 118.481 14.2897Z" fill="url(#paint0_linear_162_1310)"/>
</g>
<defs>
<linearGradient id="paint0_linear_162_1310" x1="-0.000401633" y1="15.9997" x2="119" y2="15.9997" gradientUnits="userSpaceOnUse">
<stop stop-color="#64C2DB"/>
<stop offset="0.307" stop-color="#7476ED"/>
<stop offset="0.604" stop-color="#C994DF"/>
<stop offset="1" stop-color="#E56F8C"/>
</linearGradient>
<clipPath id="clip0_162_1310">
<rect width="125" height="40" fill="white"/>
</clipPath>
</defs>
</svg>
