<svg width="258" height="36" viewBox="0 0 258 36" fill="none" xmlns="http://www.w3.org/2000/svg">
<path d="M43.3898 36H32.455C32.1267 36 31.8608 35.7345 31.8608 35.4065V0.593492C31.8608 0.26551 32.1267 0 32.455 0H43.3898C43.7182 0 43.984 0.26551 43.984 0.593492V35.4065C43.984 35.7345 43.7182 36 43.3898 36Z" fill="#EEAC0B"/>
<path d="M27.4567 36H16.5219C16.1935 36 15.9277 35.7345 15.9277 35.4065V0.593492C15.9329 0.26551 16.1988 0 16.5219 0H27.4567C27.7851 0 28.0509 0.26551 28.0509 0.593492V35.4065C28.0509 35.7345 27.7851 36 27.4567 36Z" fill="#EEAC0B"/>
<path d="M11.529 36H0.59417C0.265813 36 0 35.7345 0 35.4065V0.593492C0 0.26551 0.265813 0 0.59417 0H11.529C11.8573 0 12.1231 0.26551 12.1231 0.593492V35.4065C12.1231 35.7345 11.8573 36 11.529 36Z" fill="#EEAC0B"/>
<path d="M104.626 26.9463H91.1792V9.00098H104.626V12.2808H94.5409V16.4092H104.267V19.5641H94.5409V23.6144H104.626V26.9463Z" fill="#EEAC0B"/>
<path d="M124.26 17.8201C124.338 22.3598 121.565 26.9463 115.279 26.9463H108.222V9.00098H115.279C121.44 9.00098 124.187 13.3845 124.26 17.8201ZM111.579 23.6873H115.274C119.355 23.6873 120.971 20.7146 120.893 17.794C120.814 14.9984 119.173 12.2027 115.274 12.2027H111.579V23.6873Z" fill="#EEAC0B"/>
<path d="M130.613 9.00098H127.251V26.9463H130.613V9.00098Z" fill="#EEAC0B"/>
<path d="M148.209 23.5624H138.817L137.279 26.9463H133.61L141.668 9.00098H145.363L153.421 26.9463H149.725L148.209 23.5624ZM143.513 12.7702L140.177 20.4075H146.848L143.513 12.7702Z" fill="#EEAC0B"/>
<path d="M204.483 18.075C204.431 22.7136 201.585 27.3574 195.268 27.3574C188.951 27.3574 186.027 22.8177 186.027 18.101C186.027 13.3843 189.056 8.6416 195.268 8.6416C201.481 8.6416 204.535 13.3843 204.483 18.075ZM189.363 18.1531C189.441 21.0997 191.031 24.2546 195.268 24.2546C199.506 24.2546 201.095 21.0737 201.147 18.1271C201.2 15.1023 199.506 11.7184 195.268 11.7184C191.031 11.7184 189.29 15.1284 189.363 18.1531Z" fill="#EEAC0B"/>
<path d="M223.397 26.947H219.368L214.136 20.9496H210.878V26.947H207.49V8.97559C210.341 8.97559 213.187 9.00162 216.038 9.00162C220.27 9.02765 222.506 11.8493 222.506 14.947C222.506 17.4094 221.375 19.8927 217.961 20.5851L223.403 26.7127V26.9417L223.397 26.947ZM210.873 12.1565V17.8988H216.033C218.19 17.8988 219.113 16.4619 219.113 15.025C219.113 13.5882 218.164 12.1513 216.033 12.1513H210.873V12.1565Z" fill="#EEAC0B"/>
<path d="M229.714 9.00098V23.8175H238.955V26.9463H226.327V9.00098H229.714Z" fill="#EEAC0B"/>
<path d="M257.927 17.8201C258.005 22.3598 255.232 26.9463 248.941 26.9463H241.884V9.00098H248.941C255.102 9.00098 257.849 13.3845 257.927 17.8201ZM245.246 23.6873H248.941C253.022 23.6873 254.638 20.7146 254.56 17.794C254.482 14.9984 252.84 12.2027 248.941 12.2027H245.246V23.6873Z" fill="#EEAC0B"/>
<path d="M82.5582 9.00098H79.1234L75.1102 20.6313L71.0917 9.00098H67.657L61.9707 26.9463H65.7807L69.476 14.8526L73.4788 26.9463H75.1102H76.7416L80.7392 14.8526L84.4345 26.9463H88.2445L82.5582 9.00098Z" fill="#EEAC0B"/>
<path d="M165.065 26.9463H168.494L172.513 15.3107L176.531 26.9463H179.966L185.652 9.00098H181.842L178.147 21.0895L174.144 9.00098H172.513H170.881L166.884 21.0895L163.188 9.00098H159.378L165.065 26.9463Z" fill="#EEAC0B"/>
</svg>
