<svg width="478" height="478" viewBox="0 0 478 478" fill="none" xmlns="http://www.w3.org/2000/svg">
<path d="M221.042 379.25C191.322 379.175 162.646 368.281 140.374 348.602C118.103 328.923 103.759 301.807 100.026 272.323C96.2917 242.838 103.423 213.003 120.086 188.394C136.749 163.784 161.803 146.085 190.566 138.605C193.706 137.731 196.989 137.493 200.221 137.905C203.454 138.318 206.572 139.372 209.391 141.007C212.211 142.641 214.675 144.823 216.64 147.423C218.605 150.023 220.03 152.99 220.832 156.149C221.634 159.307 221.796 162.595 221.31 165.817C220.823 169.04 219.698 172.132 217.999 174.914C216.301 177.695 214.064 180.109 211.419 182.014C208.775 183.918 205.776 185.275 202.6 186.005C190.071 189.235 178.619 195.721 169.405 204.805C160.191 213.889 153.543 225.248 150.135 237.73C146.727 250.212 146.681 263.373 150 275.879C153.319 288.385 159.886 299.791 169.035 308.94C178.185 318.089 189.59 324.656 202.096 327.976C214.602 331.295 227.763 331.248 240.245 327.84C252.727 324.432 264.086 317.784 273.17 308.571C282.254 299.357 288.74 287.905 291.971 275.376C292.75 272.248 294.139 269.305 296.059 266.716C297.98 264.127 300.392 261.944 303.159 260.291C305.926 258.637 308.993 257.547 312.182 257.083C315.372 256.619 318.622 256.79 321.745 257.586C324.868 258.383 327.804 259.788 330.382 261.723C332.96 263.657 335.131 266.082 336.769 268.858C338.407 271.634 339.48 274.706 339.926 277.898C340.373 281.09 340.184 284.339 339.371 287.458C332.668 313.74 317.392 337.037 295.96 353.662C274.529 370.287 248.165 379.292 221.042 379.25Z" fill="black"/>
<path d="M221.042 477.083C162.661 477.083 106.671 453.892 65.3896 412.61C24.1082 371.329 0.916504 315.339 0.916504 256.958C0.916504 198.578 24.1082 142.588 65.3896 101.307C106.671 60.0251 162.661 36.8334 221.042 36.8334C226.353 36.8328 231.66 37.1267 236.939 37.7139C240.201 37.9786 243.376 38.895 246.277 40.409C249.178 41.9229 251.746 44.0036 253.828 46.5277C255.91 49.0519 257.465 51.9682 258.4 55.104C259.335 58.2398 259.631 61.5313 259.271 64.7837C258.911 68.036 257.902 71.183 256.303 74.0383C254.705 76.8937 252.55 79.3993 249.966 81.4068C247.382 83.4142 244.421 84.8828 241.26 85.7255C238.098 86.5682 234.799 86.7678 231.559 86.3126C228.065 85.943 224.555 85.7552 221.042 85.7501C187.18 85.7501 154.078 95.7913 125.923 114.604C97.7682 133.416 75.824 160.156 62.8656 191.44C49.9073 222.724 46.5168 257.148 53.1229 290.359C59.729 323.571 76.035 354.077 99.9789 378.021C123.923 401.965 154.429 418.271 187.64 424.877C220.852 431.483 255.276 428.093 286.56 415.134C317.844 402.176 344.583 380.232 363.396 352.077C382.209 323.922 392.25 290.82 392.25 256.958C392.246 253.47 392.058 249.984 391.687 246.515C390.951 240.074 392.802 233.604 396.833 228.527C400.864 223.451 406.746 220.182 413.186 219.439C416.387 219.028 419.637 219.263 422.745 220.13C425.853 220.997 428.755 222.479 431.28 224.489C433.804 226.498 435.9 228.993 437.443 231.827C438.986 234.661 439.944 237.776 440.262 240.987C440.868 246.289 441.17 251.622 441.167 256.958C441.102 315.319 417.889 371.271 376.622 412.539C335.354 453.806 279.402 477.019 221.042 477.083Z" fill="black"/>
<path d="M476.925 105.537C476 103.3 474.433 101.389 472.422 100.043C470.41 98.698 468.045 97.9796 465.625 97.9793H380.021V12.3751C380.025 9.9532 379.31 7.58456 377.967 5.56946C376.623 3.55436 374.712 1.98354 372.474 1.05614C370.237 0.128743 367.775 -0.11347 365.4 0.360209C363.025 0.833889 360.844 2.00213 359.133 3.71682L296.52 66.3546C287.38 75.5488 282.23 87.9742 282.187 100.939V161.229L203.749 239.666C201.413 241.923 199.55 244.621 198.268 247.605C196.986 250.589 196.312 253.799 196.284 257.046C196.255 260.294 196.874 263.515 198.104 266.521C199.334 269.526 201.15 272.257 203.446 274.554C205.743 276.85 208.474 278.666 211.479 279.896C214.485 281.126 217.706 281.745 220.953 281.716C224.201 281.688 227.41 281.013 230.394 279.732C233.378 278.45 236.077 276.587 238.334 274.25L316.771 195.813H377.061C390.028 195.78 402.457 190.629 411.645 181.48L474.283 118.867C475.992 117.155 477.156 114.975 477.626 112.602C478.096 110.23 477.852 107.771 476.925 105.537Z" fill="black"/>
</svg>
