<svg width="344" height="460" viewBox="0 0 344 460" fill="none" xmlns="http://www.w3.org/2000/svg">
<path opacity="0.4" d="M171.584 79.9135L111.294 184.473C106.425 192.875 98.4231 199.004 89.0428 201.516C79.6625 204.029 69.6687 202.72 61.252 197.876L18.7189 173.418C14.5252 171.011 10.8487 167.798 7.90074 163.966C4.95282 160.133 2.79167 155.755 1.54153 151.084C0.291382 146.413 -0.0230713 141.541 0.616257 136.748C1.25558 131.955 2.83609 127.336 5.26686 123.156L65.5077 18.6943C70.3727 10.2881 78.3724 4.15395 87.7531 1.63685C97.1337 -0.880249 107.13 0.425102 115.549 5.2667L158.18 29.9452C166.563 34.8138 172.677 42.8021 175.189 52.1647C177.7 61.5274 176.404 71.5034 171.584 79.9135Z" fill="black"/>
<path opacity="0.4" d="M419.42 228.571C429.556 235.56 436.692 246.106 439.41 258.114C442.129 270.121 440.232 282.712 434.095 293.386L427.736 304.392C421.63 315.09 411.701 323.08 399.945 326.755C388.188 330.431 375.476 329.519 364.364 324.203L295.318 291.209L356.464 185.745L419.42 228.571Z" fill="black"/>
<path d="M204.186 247.673L98.6975 197.265L176.475 63.2329L356.488 185.745L295.342 291.209L247.893 268.536L334.109 432.065C335.233 434.196 335.926 436.527 336.15 438.926C336.373 441.326 336.121 443.745 335.409 446.047C334.697 448.349 333.539 450.488 332 452.342C330.461 454.196 328.572 455.729 326.441 456.853C324.31 457.977 321.978 458.671 319.579 458.894C317.18 459.117 314.761 458.865 312.459 458.153C310.157 457.441 308.018 456.283 306.164 454.744C304.31 453.205 302.777 451.316 301.653 449.185L220.5 295.196L138.711 449.283C137.67 451.551 136.177 453.582 134.324 455.253C132.471 456.924 130.296 458.199 127.933 459.001C125.57 459.802 123.068 460.113 120.581 459.914C118.094 459.716 115.673 459.012 113.467 457.846C111.261 456.679 109.316 455.075 107.752 453.132C106.187 451.188 105.035 448.945 104.367 446.541C103.699 444.137 103.528 441.622 103.865 439.15C104.203 436.677 105.041 434.3 106.328 432.162L204.186 247.673Z" fill="black"/>
</svg>
