<svg width="402" height="50" viewBox="0 0 402 50" fill="none" xmlns="http://www.w3.org/2000/svg">
<g clipPath="url(#clip0_53_4296)">
<path d="M0 0.949646H9.71711L18.9363 16.6839L28.0939 0.949646H37.7546L23.125 25.5008V40.7888H14.4602V25.2776L0 0.949646Z" fill="#EEAC0B"/>
<path d="M70.5402 0.949646V8.31342H49.7302V16.85H68.8308V23.6585H49.7302V33.425H70.9816V40.7888H41.0654V0.949646H70.5402Z" fill="#EEAC0B"/>
<path d="M83.4603 30.9704C83.9377 31.8993 84.5742 32.657 85.3647 33.233C86.1553 33.809 87.0844 34.2397 88.1521 34.5148C89.2198 34.795 90.3234 34.9351 91.463 34.9351C92.2381 34.9351 93.0645 34.8729 93.9474 34.7379C94.8303 34.6082 95.6568 34.3591 96.4319 33.9855C97.207 33.6118 97.8486 33.1033 98.362 32.4494C98.8753 31.7955 99.1371 30.9704 99.1371 29.9637C99.1371 28.8843 98.7931 28.0125 98.1156 27.343C97.4329 26.6736 96.5448 26.1131 95.4412 25.6668C94.3375 25.2205 93.085 24.8313 91.6888 24.494C90.2875 24.1567 88.8707 23.7883 87.4385 23.3783C85.9653 23.0047 84.5332 22.5532 83.1318 22.0135C81.7305 21.4738 80.4831 20.7784 79.3795 19.9222C78.2758 19.0659 77.3826 17.9969 76.7051 16.7151C76.0223 15.4333 75.6836 13.8765 75.6836 12.055C75.6836 10.0104 76.1148 8.23041 76.9823 6.72548C77.8446 5.22055 78.9791 3.96471 80.3753 2.95797C81.7715 1.95122 83.3577 1.20913 85.1235 0.726518C86.8893 0.243902 88.6551 0 90.4209 0C92.4793 0 94.4607 0.233524 96.3549 0.695381C98.249 1.16243 99.9327 1.91489 101.406 2.95278C102.879 3.99585 104.044 5.32434 104.912 6.94344C105.774 8.56253 106.211 10.5241 106.211 12.8282H97.823C97.7511 11.6399 97.4996 10.6539 97.0787 9.87027C96.6526 9.08666 96.0931 8.47431 95.395 8.02802C94.6969 7.58173 93.8961 7.26518 92.9927 7.07836C92.0892 6.89154 91.1088 6.79813 90.0411 6.79813C89.343 6.79813 88.6449 6.87078 87.9416 7.02128C87.2435 7.17177 86.607 7.43124 86.0372 7.80488C85.4674 8.17852 84.9952 8.64037 84.6307 9.20083C84.2611 9.76129 84.0763 10.467 84.0763 11.3233C84.0763 12.1069 84.2252 12.74 84.5178 13.2226C84.8104 13.7052 85.3904 14.1515 86.2579 14.5615C87.1203 14.9715 88.3163 15.3814 89.846 15.7914C91.3706 16.2013 93.3674 16.7203 95.8364 17.3534C96.5705 17.5039 97.592 17.7737 98.9009 18.1629C100.205 18.5522 101.503 19.1749 102.792 20.0311C104.08 20.8874 105.194 22.0291 106.134 23.4613C107.073 24.8936 107.54 26.7255 107.54 28.9569C107.54 30.7784 107.191 32.4702 106.493 34.0322C105.795 35.5942 104.753 36.9434 103.372 38.0799C101.991 39.2164 100.282 40.0986 98.2388 40.7317C96.1958 41.3648 93.8345 41.6814 91.1447 41.6814C88.9734 41.6814 86.8688 41.4115 84.8258 40.8718C82.7828 40.3321 80.981 39.4862 79.4154 38.3342C77.8498 37.1821 76.6075 35.7135 75.6887 33.9232C74.7699 32.138 74.3284 30.0156 74.3643 27.561H82.7571C82.7571 28.8998 82.9932 30.0363 83.4757 30.9652L83.4603 30.9704Z" fill="#EEAC0B"/>
<path d="M120.881 32.1951V40.7888C120.881 42.055 120.65 43.2174 120.194 44.2761C119.732 45.3347 119.116 46.2584 118.346 47.0369C117.57 47.8205 116.662 48.4587 115.615 48.9621C114.568 49.4655 113.454 49.808 112.278 49.9948V45.9782C112.827 45.8692 113.356 45.6461 113.849 45.3088C114.347 44.9715 114.778 44.5719 115.148 44.11C115.517 43.643 115.789 43.124 115.974 42.548C116.159 41.972 116.231 41.3856 116.195 40.7888H112.222V32.1951H120.886H120.881Z" fill="#EEAC0B"/>
<path d="M172.269 40.794L165.591 13.6741H165.478L158.908 40.794H150.13L139.705 0.949646H148.369L154.606 28.0695H154.719L161.562 0.949646H169.677L176.412 28.4068H176.525L182.982 0.949646H191.483L180.883 40.794H172.275H172.269Z" fill="#EEAC0B"/>
<path d="M204.121 0.949646V40.794H195.456V0.949646H204.121Z" fill="#EEAC0B"/>
<path d="M208.643 8.31342V0.949646H240.936V8.31342H229.124V40.7888H220.46V8.31342H208.648H208.643Z" fill="#EEAC0B"/>
<path d="M254.129 0.949646V16.2377H270.083V0.949646H278.747V40.794H270.083V23.6066H254.129V40.794H245.464V0.949646H254.129Z" fill="#EEAC0B"/>
<path d="M330.69 37.7478C327.707 40.3684 323.585 41.6814 318.324 41.6814C313.062 41.6814 308.858 40.3788 305.932 37.7737C303.006 35.1686 301.543 31.152 301.543 25.7187V0.949646H310.208V25.7239C310.208 26.8033 310.301 27.8619 310.485 28.905C310.67 29.9481 311.055 30.8666 311.646 31.6658C312.236 32.465 313.052 33.1188 314.104 33.617C315.152 34.1204 316.558 34.3695 318.329 34.3695C321.419 34.3695 323.555 33.6741 324.73 32.2781C325.906 30.8822 326.496 28.6974 326.496 25.7239V0.949646H335.161V25.7239C335.161 31.1209 333.672 35.1271 330.69 37.7478Z" fill="#EEAC0B"/>
<path d="M349.231 30.9704C349.708 31.8993 350.345 32.657 351.135 33.233C351.926 33.809 352.855 34.2397 353.923 34.5148C354.99 34.795 356.094 34.9351 357.233 34.9351C358.009 34.9351 358.835 34.8729 359.718 34.7379C360.601 34.6082 361.427 34.3591 362.202 33.9855C362.977 33.6118 363.619 33.1033 364.132 32.4494C364.646 31.8007 364.908 30.9704 364.908 29.9637C364.908 28.8843 364.564 28.0125 363.886 27.343C363.203 26.6736 362.315 26.1131 361.212 25.6668C360.108 25.2205 358.856 24.8313 357.459 24.494C356.058 24.1567 354.641 23.7883 353.209 23.3783C351.736 23.0047 350.304 22.5532 348.902 22.0135C347.501 21.4738 346.254 20.7784 345.15 19.9222C344.046 19.0659 343.153 17.9969 342.476 16.7151C341.793 15.4333 341.454 13.8765 341.454 12.055C341.454 10.0104 341.885 8.23041 342.753 6.72548C343.615 5.22055 344.75 3.96471 346.146 2.95797C347.542 1.95122 349.128 1.20913 350.894 0.726518C352.66 0.243902 354.426 0 356.191 0C358.25 0 360.231 0.233524 362.125 0.695381C364.02 1.16243 365.703 1.91489 367.176 2.95278C368.65 3.99585 369.815 5.32434 370.682 6.94344C371.545 8.56253 371.981 10.5241 371.981 12.8282H363.593C363.522 11.6399 363.27 10.6539 362.849 9.87027C362.423 9.08666 361.864 8.47431 361.166 8.02802C360.467 7.58173 359.667 7.26518 358.763 7.07836C357.86 6.89154 356.879 6.79813 355.812 6.79813C355.113 6.79813 354.415 6.87078 353.712 7.02128C353.014 7.17177 352.377 7.43124 351.808 7.80488C351.238 8.17852 350.766 8.64037 350.401 9.20083C350.032 9.76129 349.847 10.467 349.847 11.3233C349.847 12.1069 349.996 12.74 350.288 13.2226C350.581 13.7052 351.161 14.1515 352.028 14.5615C352.891 14.9715 354.087 15.3814 355.617 15.7914C357.141 16.2013 359.138 16.7203 361.607 17.3534C362.341 17.5039 363.362 17.7737 364.671 18.1629C365.975 18.5522 367.274 19.1749 368.562 20.0311C369.851 20.8874 370.965 22.0291 371.904 23.4613C372.843 24.8936 373.311 26.7255 373.311 28.9569C373.311 30.7784 372.962 32.4702 372.263 34.0322C371.565 35.5942 370.523 36.9434 369.142 38.0799C367.762 39.2164 366.052 40.0986 364.009 40.7317C361.966 41.3648 359.605 41.6814 356.915 41.6814C354.744 41.6814 352.639 41.4115 350.596 40.8718C348.553 40.3321 346.752 39.4862 345.186 38.3342C343.62 37.1821 342.378 35.7135 341.459 33.9232C340.54 32.138 340.099 30.0156 340.135 27.561H348.528C348.528 28.8998 348.764 30.0363 349.246 30.9652L349.231 30.9704Z" fill="#EEAC0B"/>
<path d="M402 32.1951V40.7888H393.335V32.1951H402ZM399.572 28.8479H395.655L393.556 11.6606V0.949646H401.723V11.6658L399.572 28.8531V28.8479Z" fill="#EEAC0B"/>
</g>
<defs>
<clipPath id="clip0_53_4296">
<rect width="402" height="50" fill="white"/>
</clipPath>
</defs>
</svg>
